<mxfile host="app.diagrams.net" modified="2022-11-16T10:39:47.873Z" agent="5.0 (X11; Linux x86_64) AppleWebKit/537.36 (KHTML, like Gecko) Chrome/107.0.0.0 Safari/537.36 Edg/107.0.1418.42" etag="mjZn6L34aDVTpncCucq7" version="20.5.3" type="github">
  <diagram id="M9rMk9_2CAVGgDLKMlBJ" name="第 1 页">
    <mxGraphModel dx="1069" dy="586" grid="1" gridSize="10" guides="1" tooltips="1" connect="1" arrows="1" fold="1" page="1" pageScale="1" pageWidth="827" pageHeight="1169" math="0" shadow="0">
      <root>
        <mxCell id="0" />
        <mxCell id="1" parent="0" />
        <mxCell id="8UIOoFh4naX3oUpx9IFV-15" style="edgeStyle=orthogonalEdgeStyle;rounded=0;orthogonalLoop=1;jettySize=auto;html=1;entryX=0;entryY=0.5;entryDx=0;entryDy=0;fontFamily=Times New Roman;" edge="1" parent="1" target="8UIOoFh4naX3oUpx9IFV-13">
          <mxGeometry relative="1" as="geometry">
            <mxPoint x="160" y="210" as="sourcePoint" />
          </mxGeometry>
        </mxCell>
        <mxCell id="8UIOoFh4naX3oUpx9IFV-1" value="v1" style="rounded=1;whiteSpace=wrap;html=1;fontFamily=Times New Roman;" vertex="1" parent="1">
          <mxGeometry x="120" y="160" width="40" height="160" as="geometry" />
        </mxCell>
        <mxCell id="8UIOoFh4naX3oUpx9IFV-8" style="edgeStyle=orthogonalEdgeStyle;rounded=0;orthogonalLoop=1;jettySize=auto;html=1;exitX=1;exitY=0.5;exitDx=0;exitDy=0;entryX=0;entryY=0.301;entryDx=0;entryDy=0;entryPerimeter=0;fontFamily=Times New Roman;" edge="1" parent="1" source="8UIOoFh4naX3oUpx9IFV-2">
          <mxGeometry relative="1" as="geometry">
            <mxPoint x="120" y="200.20000000000005" as="targetPoint" />
          </mxGeometry>
        </mxCell>
        <mxCell id="8UIOoFh4naX3oUpx9IFV-10" style="edgeStyle=orthogonalEdgeStyle;rounded=0;orthogonalLoop=1;jettySize=auto;html=1;exitX=1;exitY=0.5;exitDx=0;exitDy=0;fontFamily=Times New Roman;entryX=1;entryY=0.5;entryDx=0;entryDy=0;" edge="1" parent="1" source="8UIOoFh4naX3oUpx9IFV-2" target="8UIOoFh4naX3oUpx9IFV-3">
          <mxGeometry relative="1" as="geometry">
            <mxPoint x="100" y="280" as="targetPoint" />
          </mxGeometry>
        </mxCell>
        <mxCell id="8UIOoFh4naX3oUpx9IFV-2" value="PC" style="rounded=0;whiteSpace=wrap;html=1;fontFamily=Times New Roman;" vertex="1" parent="1">
          <mxGeometry x="40" y="180" width="40" height="40" as="geometry" />
        </mxCell>
        <mxCell id="8UIOoFh4naX3oUpx9IFV-12" style="edgeStyle=orthogonalEdgeStyle;rounded=0;orthogonalLoop=1;jettySize=auto;html=1;fontFamily=Times New Roman;entryX=0;entryY=0.5;entryDx=0;entryDy=0;" edge="1" parent="1" source="8UIOoFh4naX3oUpx9IFV-3" target="8UIOoFh4naX3oUpx9IFV-2">
          <mxGeometry relative="1" as="geometry">
            <mxPoint x="20" y="200" as="targetPoint" />
            <Array as="points">
              <mxPoint x="20" y="280" />
              <mxPoint x="20" y="200" />
            </Array>
          </mxGeometry>
        </mxCell>
        <mxCell id="8UIOoFh4naX3oUpx9IFV-3" value="NPC" style="rounded=0;whiteSpace=wrap;html=1;fontFamily=Times New Roman;" vertex="1" parent="1">
          <mxGeometry x="40" y="260" width="40" height="40" as="geometry" />
        </mxCell>
        <mxCell id="8UIOoFh4naX3oUpx9IFV-19" style="edgeStyle=orthogonalEdgeStyle;rounded=0;orthogonalLoop=1;jettySize=auto;html=1;fontFamily=Times New Roman;entryX=0;entryY=0.5;entryDx=0;entryDy=0;" edge="1" parent="1" source="8UIOoFh4naX3oUpx9IFV-13" target="8UIOoFh4naX3oUpx9IFV-14">
          <mxGeometry relative="1" as="geometry">
            <mxPoint x="260" y="200" as="targetPoint" />
          </mxGeometry>
        </mxCell>
        <mxCell id="8UIOoFh4naX3oUpx9IFV-13" value="GRF" style="rounded=0;whiteSpace=wrap;html=1;fontFamily=Times New Roman;" vertex="1" parent="1">
          <mxGeometry x="200" y="180" width="40" height="60" as="geometry" />
        </mxCell>
        <mxCell id="8UIOoFh4naX3oUpx9IFV-14" value="v1R&lt;br&gt;v2R" style="rounded=0;whiteSpace=wrap;html=1;fontFamily=Times New Roman;" vertex="1" parent="1">
          <mxGeometry x="280" y="160" width="40" height="80" as="geometry" />
        </mxCell>
        <mxCell id="8UIOoFh4naX3oUpx9IFV-26" value="&lt;span style=&quot;color: rgba(0, 0, 0, 0.87); font-family: _, -apple-system, BlinkMacSystemFont, Helvetica, Arial, sans-serif; font-size: 15.36px; font-style: normal; font-variant-ligatures: normal; font-variant-caps: normal; font-weight: 400; letter-spacing: normal; orphans: 2; text-align: left; text-indent: 0px; text-transform: none; widows: 2; word-spacing: 0px; -webkit-text-stroke-width: 0px; background-color: rgb(255, 255, 255); text-decoration-thickness: initial; text-decoration-style: initial; text-decoration-color: initial; float: none; display: inline !important;&quot;&gt;Fetch&lt;/span&gt;" style="text;html=1;strokeColor=none;fillColor=none;align=center;verticalAlign=middle;whiteSpace=wrap;rounded=0;fontFamily=Times New Roman;" vertex="1" parent="1">
          <mxGeometry x="30" y="120" width="60" height="30" as="geometry" />
        </mxCell>
        <mxCell id="8UIOoFh4naX3oUpx9IFV-27" value="&lt;span style=&quot;color: rgba(0, 0, 0, 0.87); font-family: _, -apple-system, BlinkMacSystemFont, Helvetica, Arial, sans-serif; font-size: 15.36px; font-style: normal; font-variant-ligatures: normal; font-variant-caps: normal; font-weight: 400; letter-spacing: normal; orphans: 2; text-align: left; text-indent: 0px; text-transform: none; widows: 2; word-spacing: 0px; -webkit-text-stroke-width: 0px; background-color: rgb(255, 255, 255); text-decoration-thickness: initial; text-decoration-style: initial; text-decoration-color: initial; float: none; display: inline !important;&quot;&gt;Decode&lt;/span&gt;" style="text;html=1;strokeColor=none;fillColor=none;align=center;verticalAlign=middle;whiteSpace=wrap;rounded=0;fontFamily=Times New Roman;" vertex="1" parent="1">
          <mxGeometry x="220" y="120" width="60" height="30" as="geometry" />
        </mxCell>
      </root>
    </mxGraphModel>
  </diagram>
</mxfile>
